<mxfile host="app.diagrams.net" agent="Mozilla/5.0 (Windows NT 10.0; Win64; x64; rv:130.0) Gecko/20100101 Firefox/130.0" version="24.7.6">
  <diagram name="Страница — 1" id="hXMB-YMLmVzZ4zF9cZrb">
    <mxGraphModel dx="2221" dy="866" grid="1" gridSize="10" guides="1" tooltips="1" connect="1" arrows="1" fold="1" page="1" pageScale="1" pageWidth="827" pageHeight="1169" math="0" shadow="0">
      <root>
        <mxCell id="0" />
        <mxCell id="1" parent="0" />
        <mxCell id="GZUUf-TcJM9M3wCEMww6-44" value="" style="group" vertex="1" connectable="0" parent="1">
          <mxGeometry x="-50" y="490" width="685" height="340" as="geometry" />
        </mxCell>
        <mxCell id="GZUUf-TcJM9M3wCEMww6-43" value="ИС 1458" style="rounded=1;whiteSpace=wrap;html=1;" vertex="1" parent="GZUUf-TcJM9M3wCEMww6-44">
          <mxGeometry x="555" y="10" width="130" height="330" as="geometry" />
        </mxCell>
        <mxCell id="GZUUf-TcJM9M3wCEMww6-35" value="УИП" style="rounded=1;whiteSpace=wrap;html=1;" vertex="1" parent="GZUUf-TcJM9M3wCEMww6-44">
          <mxGeometry x="210" width="130" height="330" as="geometry" />
        </mxCell>
        <mxCell id="GZUUf-TcJM9M3wCEMww6-7" value="deals" style="rounded=1;whiteSpace=wrap;html=1;" vertex="1" parent="GZUUf-TcJM9M3wCEMww6-44">
          <mxGeometry x="560" y="70" width="120" height="60" as="geometry" />
        </mxCell>
        <mxCell id="GZUUf-TcJM9M3wCEMww6-8" value="payments" style="rounded=1;whiteSpace=wrap;html=1;" vertex="1" parent="GZUUf-TcJM9M3wCEMww6-44">
          <mxGeometry x="560" y="220" width="120" height="60" as="geometry" />
        </mxCell>
        <mxCell id="GZUUf-TcJM9M3wCEMww6-9" value="КрСМБ" style="rounded=1;whiteSpace=wrap;html=1;" vertex="1" parent="GZUUf-TcJM9M3wCEMww6-44">
          <mxGeometry y="70" width="120" height="60" as="geometry" />
        </mxCell>
        <mxCell id="GZUUf-TcJM9M3wCEMww6-10" style="edgeStyle=orthogonalEdgeStyle;rounded=0;orthogonalLoop=1;jettySize=auto;html=1;" edge="1" parent="GZUUf-TcJM9M3wCEMww6-44" source="GZUUf-TcJM9M3wCEMww6-11" target="GZUUf-TcJM9M3wCEMww6-7">
          <mxGeometry relative="1" as="geometry" />
        </mxCell>
        <mxCell id="GZUUf-TcJM9M3wCEMww6-11" value="" style="shape=cylinder3;whiteSpace=wrap;html=1;boundedLbl=1;backgroundOutline=1;size=15;rotation=90;" vertex="1" parent="GZUUf-TcJM9M3wCEMww6-44">
          <mxGeometry x="250" y="60" width="60" height="80" as="geometry" />
        </mxCell>
        <mxCell id="GZUUf-TcJM9M3wCEMww6-12" style="edgeStyle=orthogonalEdgeStyle;rounded=0;orthogonalLoop=1;jettySize=auto;html=1;entryX=0.5;entryY=1;entryDx=0;entryDy=0;entryPerimeter=0;" edge="1" parent="GZUUf-TcJM9M3wCEMww6-44" source="GZUUf-TcJM9M3wCEMww6-9" target="GZUUf-TcJM9M3wCEMww6-11">
          <mxGeometry relative="1" as="geometry" />
        </mxCell>
        <mxCell id="GZUUf-TcJM9M3wCEMww6-15" style="edgeStyle=orthogonalEdgeStyle;rounded=0;orthogonalLoop=1;jettySize=auto;html=1;" edge="1" parent="GZUUf-TcJM9M3wCEMww6-44" source="GZUUf-TcJM9M3wCEMww6-14" target="GZUUf-TcJM9M3wCEMww6-8">
          <mxGeometry relative="1" as="geometry" />
        </mxCell>
        <mxCell id="GZUUf-TcJM9M3wCEMww6-14" value="" style="shape=cylinder3;whiteSpace=wrap;html=1;boundedLbl=1;backgroundOutline=1;size=15;rotation=90;" vertex="1" parent="GZUUf-TcJM9M3wCEMww6-44">
          <mxGeometry x="250" y="210" width="60" height="80" as="geometry" />
        </mxCell>
        <mxCell id="GZUUf-TcJM9M3wCEMww6-17" style="edgeStyle=orthogonalEdgeStyle;rounded=0;orthogonalLoop=1;jettySize=auto;html=1;entryX=0.733;entryY=0.988;entryDx=0;entryDy=0;entryPerimeter=0;" edge="1" parent="GZUUf-TcJM9M3wCEMww6-44" source="GZUUf-TcJM9M3wCEMww6-9" target="GZUUf-TcJM9M3wCEMww6-14">
          <mxGeometry relative="1" as="geometry">
            <Array as="points">
              <mxPoint x="60" y="264" />
            </Array>
          </mxGeometry>
        </mxCell>
        <mxCell id="GZUUf-TcJM9M3wCEMww6-27" style="edgeStyle=orthogonalEdgeStyle;rounded=0;orthogonalLoop=1;jettySize=auto;html=1;entryX=0;entryY=0;entryDx=0;entryDy=15;entryPerimeter=0;" edge="1" parent="GZUUf-TcJM9M3wCEMww6-44" source="GZUUf-TcJM9M3wCEMww6-25" target="GZUUf-TcJM9M3wCEMww6-14">
          <mxGeometry relative="1" as="geometry" />
        </mxCell>
        <mxCell id="GZUUf-TcJM9M3wCEMww6-25" value="ЦФТ" style="rounded=1;whiteSpace=wrap;html=1;" vertex="1" parent="GZUUf-TcJM9M3wCEMww6-44">
          <mxGeometry x="394" y="140" width="120" height="60" as="geometry" />
        </mxCell>
        <mxCell id="GZUUf-TcJM9M3wCEMww6-28" style="edgeStyle=orthogonalEdgeStyle;rounded=0;orthogonalLoop=1;jettySize=auto;html=1;entryX=1;entryY=0;entryDx=0;entryDy=15;entryPerimeter=0;" edge="1" parent="GZUUf-TcJM9M3wCEMww6-44" source="GZUUf-TcJM9M3wCEMww6-25" target="GZUUf-TcJM9M3wCEMww6-11">
          <mxGeometry relative="1" as="geometry" />
        </mxCell>
        <mxCell id="GZUUf-TcJM9M3wCEMww6-45" value="" style="group" vertex="1" connectable="0" parent="1">
          <mxGeometry x="-80" y="70" width="715" height="340" as="geometry" />
        </mxCell>
        <mxCell id="GZUUf-TcJM9M3wCEMww6-42" value="ИС 1458" style="rounded=1;whiteSpace=wrap;html=1;" vertex="1" parent="GZUUf-TcJM9M3wCEMww6-45">
          <mxGeometry x="585" width="130" height="330" as="geometry" />
        </mxCell>
        <mxCell id="GZUUf-TcJM9M3wCEMww6-32" value="УИП" style="rounded=1;whiteSpace=wrap;html=1;" vertex="1" parent="GZUUf-TcJM9M3wCEMww6-45">
          <mxGeometry x="240" y="10" width="130" height="330" as="geometry" />
        </mxCell>
        <mxCell id="GZUUf-TcJM9M3wCEMww6-13" style="edgeStyle=orthogonalEdgeStyle;rounded=0;orthogonalLoop=1;jettySize=auto;html=1;entryX=0.5;entryY=0;entryDx=0;entryDy=0;" edge="1" parent="GZUUf-TcJM9M3wCEMww6-45">
          <mxGeometry relative="1" as="geometry">
            <mxPoint x="690" y="130" as="sourcePoint" />
            <mxPoint x="690" y="220" as="targetPoint" />
          </mxGeometry>
        </mxCell>
        <mxCell id="GZUUf-TcJM9M3wCEMww6-1" value="deals" style="rounded=1;whiteSpace=wrap;html=1;" vertex="1" parent="GZUUf-TcJM9M3wCEMww6-45">
          <mxGeometry x="590" y="70" width="120" height="60" as="geometry" />
        </mxCell>
        <mxCell id="GZUUf-TcJM9M3wCEMww6-2" value="payments" style="rounded=1;whiteSpace=wrap;html=1;" vertex="1" parent="GZUUf-TcJM9M3wCEMww6-45">
          <mxGeometry x="590" y="220" width="120" height="60" as="geometry" />
        </mxCell>
        <mxCell id="GZUUf-TcJM9M3wCEMww6-3" value="КрСМБ" style="rounded=1;whiteSpace=wrap;html=1;" vertex="1" parent="GZUUf-TcJM9M3wCEMww6-45">
          <mxGeometry x="30" y="70" width="120" height="60" as="geometry" />
        </mxCell>
        <mxCell id="GZUUf-TcJM9M3wCEMww6-6" style="edgeStyle=orthogonalEdgeStyle;rounded=0;orthogonalLoop=1;jettySize=auto;html=1;" edge="1" parent="GZUUf-TcJM9M3wCEMww6-45" source="GZUUf-TcJM9M3wCEMww6-4" target="GZUUf-TcJM9M3wCEMww6-1">
          <mxGeometry relative="1" as="geometry" />
        </mxCell>
        <mxCell id="GZUUf-TcJM9M3wCEMww6-4" value="" style="shape=cylinder3;whiteSpace=wrap;html=1;boundedLbl=1;backgroundOutline=1;size=15;rotation=90;" vertex="1" parent="GZUUf-TcJM9M3wCEMww6-45">
          <mxGeometry x="280" y="60" width="60" height="80" as="geometry" />
        </mxCell>
        <mxCell id="GZUUf-TcJM9M3wCEMww6-5" style="edgeStyle=orthogonalEdgeStyle;rounded=0;orthogonalLoop=1;jettySize=auto;html=1;entryX=0.5;entryY=1;entryDx=0;entryDy=0;entryPerimeter=0;" edge="1" parent="GZUUf-TcJM9M3wCEMww6-45" source="GZUUf-TcJM9M3wCEMww6-3" target="GZUUf-TcJM9M3wCEMww6-4">
          <mxGeometry relative="1" as="geometry" />
        </mxCell>
        <mxCell id="GZUUf-TcJM9M3wCEMww6-21" style="edgeStyle=orthogonalEdgeStyle;rounded=0;orthogonalLoop=1;jettySize=auto;html=1;" edge="1" parent="GZUUf-TcJM9M3wCEMww6-45" source="GZUUf-TcJM9M3wCEMww6-20" target="GZUUf-TcJM9M3wCEMww6-2">
          <mxGeometry relative="1" as="geometry" />
        </mxCell>
        <mxCell id="GZUUf-TcJM9M3wCEMww6-20" value="" style="shape=cylinder3;whiteSpace=wrap;html=1;boundedLbl=1;backgroundOutline=1;size=15;rotation=90;" vertex="1" parent="GZUUf-TcJM9M3wCEMww6-45">
          <mxGeometry x="280" y="210" width="60" height="80" as="geometry" />
        </mxCell>
        <mxCell id="GZUUf-TcJM9M3wCEMww6-29" value="ЦФТ" style="rounded=1;whiteSpace=wrap;html=1;" vertex="1" parent="GZUUf-TcJM9M3wCEMww6-45">
          <mxGeometry x="30" y="220" width="120" height="60" as="geometry" />
        </mxCell>
        <mxCell id="GZUUf-TcJM9M3wCEMww6-30" style="edgeStyle=orthogonalEdgeStyle;rounded=0;orthogonalLoop=1;jettySize=auto;html=1;entryX=0.5;entryY=1;entryDx=0;entryDy=0;entryPerimeter=0;" edge="1" parent="GZUUf-TcJM9M3wCEMww6-45" source="GZUUf-TcJM9M3wCEMww6-29" target="GZUUf-TcJM9M3wCEMww6-20">
          <mxGeometry relative="1" as="geometry">
            <Array as="points" />
          </mxGeometry>
        </mxCell>
        <mxCell id="GZUUf-TcJM9M3wCEMww6-36" value="ART.L.VKKP.1458.RQ" style="text;html=1;align=center;verticalAlign=middle;whiteSpace=wrap;rounded=0;" vertex="1" parent="GZUUf-TcJM9M3wCEMww6-45">
          <mxGeometry x="240" y="40" width="140" height="30" as="geometry" />
        </mxCell>
        <mxCell id="GZUUf-TcJM9M3wCEMww6-37" value="ART.L.VKKP.1458.PAYMENTS.RQ" style="text;html=1;align=center;verticalAlign=middle;whiteSpace=wrap;rounded=0;" vertex="1" parent="GZUUf-TcJM9M3wCEMww6-45">
          <mxGeometry x="235" y="300" width="175" height="30" as="geometry" />
        </mxCell>
        <mxCell id="GZUUf-TcJM9M3wCEMww6-38" style="edgeStyle=orthogonalEdgeStyle;rounded=0;orthogonalLoop=1;jettySize=auto;html=1;entryX=0.683;entryY=1.013;entryDx=0;entryDy=0;entryPerimeter=0;" edge="1" parent="GZUUf-TcJM9M3wCEMww6-45" source="GZUUf-TcJM9M3wCEMww6-29" target="GZUUf-TcJM9M3wCEMww6-4">
          <mxGeometry relative="1" as="geometry" />
        </mxCell>
        <mxCell id="GZUUf-TcJM9M3wCEMww6-41" value="ART.L.LOAN.1371.IN" style="text;html=1;align=center;verticalAlign=middle;whiteSpace=wrap;rounded=0;" vertex="1" parent="GZUUf-TcJM9M3wCEMww6-45">
          <mxGeometry y="30" width="160" height="10" as="geometry" />
        </mxCell>
      </root>
    </mxGraphModel>
  </diagram>
</mxfile>
